<mxfile host="www.draw.io" modified="2020-02-27T14:12:01.820Z" agent="Mozilla/5.0 (Windows NT 10.0; Win64; x64) AppleWebKit/537.36 (KHTML, like Gecko) Chrome/80.0.3987.122 Safari/537.36" etag="7aUmPxrkFn7FFdFfAIya" version="12.7.8" type="github">
  <diagram name="Page-1" id="ad52d381-51e7-2e0d-a935-2d0ddd2fd229">
    <mxGraphModel dx="2522" dy="1622" grid="1" gridSize="10" guides="1" tooltips="1" connect="1" arrows="1" fold="1" page="1" pageScale="1" pageWidth="1100" pageHeight="850" background="#ffffff" math="0" shadow="0">
      <root>
        <mxCell id="0" />
        <mxCell id="1" parent="0" />
        <mxCell id="DBm_p_bqu5GcMx6-zvob-2" value="Sales Order" style="ellipse;whiteSpace=wrap;html=1;" parent="1" vertex="1">
          <mxGeometry x="380" y="230" width="120" height="80" as="geometry" />
        </mxCell>
        <mxCell id="DBm_p_bqu5GcMx6-zvob-3" value="Sales Party" style="ellipse;whiteSpace=wrap;html=1;" parent="1" vertex="1">
          <mxGeometry x="-40" y="690" width="120" height="80" as="geometry" />
        </mxCell>
        <mxCell id="DBm_p_bqu5GcMx6-zvob-4" value="" style="endArrow=classic;html=1;" parent="1" source="DBm_p_bqu5GcMx6-zvob-2" target="DBm_p_bqu5GcMx6-zvob-3" edge="1">
          <mxGeometry width="50" height="50" relative="1" as="geometry">
            <mxPoint x="520" y="340" as="sourcePoint" />
            <mxPoint x="570" y="290" as="targetPoint" />
          </mxGeometry>
        </mxCell>
        <mxCell id="DBm_p_bqu5GcMx6-zvob-5" value="Sales Order Level Price Details" style="ellipse;whiteSpace=wrap;html=1;" parent="1" vertex="1">
          <mxGeometry x="-60" y="820" width="120" height="80" as="geometry" />
        </mxCell>
        <mxCell id="DBm_p_bqu5GcMx6-zvob-6" value="" style="endArrow=classic;html=1;" parent="1" source="DBm_p_bqu5GcMx6-zvob-2" target="DBm_p_bqu5GcMx6-zvob-5" edge="1">
          <mxGeometry width="50" height="50" relative="1" as="geometry">
            <mxPoint x="540" y="400" as="sourcePoint" />
            <mxPoint x="510" y="350" as="targetPoint" />
          </mxGeometry>
        </mxCell>
        <mxCell id="DBm_p_bqu5GcMx6-zvob-8" value="Channel" style="ellipse;whiteSpace=wrap;html=1;" parent="1" vertex="1">
          <mxGeometry x="-50" y="370" width="120" height="80" as="geometry" />
        </mxCell>
        <mxCell id="DBm_p_bqu5GcMx6-zvob-9" value="" style="endArrow=classic;html=1;" parent="1" source="DBm_p_bqu5GcMx6-zvob-2" target="DBm_p_bqu5GcMx6-zvob-8" edge="1">
          <mxGeometry width="50" height="50" relative="1" as="geometry">
            <mxPoint x="520" y="340" as="sourcePoint" />
            <mxPoint x="570" y="290" as="targetPoint" />
          </mxGeometry>
        </mxCell>
        <mxCell id="DBm_p_bqu5GcMx6-zvob-10" value="Reservation" style="ellipse;whiteSpace=wrap;html=1;" parent="1" vertex="1">
          <mxGeometry x="520" y="80" width="120" height="80" as="geometry" />
        </mxCell>
        <mxCell id="DBm_p_bqu5GcMx6-zvob-11" value="" style="endArrow=classic;html=1;" parent="1" source="DBm_p_bqu5GcMx6-zvob-2" target="DBm_p_bqu5GcMx6-zvob-10" edge="1">
          <mxGeometry width="50" height="50" relative="1" as="geometry">
            <mxPoint x="420" y="300" as="sourcePoint" />
            <mxPoint x="470" y="250" as="targetPoint" />
          </mxGeometry>
        </mxCell>
        <mxCell id="DBm_p_bqu5GcMx6-zvob-12" value="Customer" style="ellipse;whiteSpace=wrap;html=1;" parent="1" vertex="1">
          <mxGeometry x="-70" y="90" width="120" height="80" as="geometry" />
        </mxCell>
        <mxCell id="DBm_p_bqu5GcMx6-zvob-13" value="" style="endArrow=classic;html=1;" parent="1" source="DBm_p_bqu5GcMx6-zvob-2" target="DBm_p_bqu5GcMx6-zvob-12" edge="1">
          <mxGeometry width="50" height="50" relative="1" as="geometry">
            <mxPoint x="130" y="480" as="sourcePoint" />
            <mxPoint x="180" y="430" as="targetPoint" />
          </mxGeometry>
        </mxCell>
        <mxCell id="DBm_p_bqu5GcMx6-zvob-14" value="Collaborateur" style="ellipse;whiteSpace=wrap;html=1;" parent="1" vertex="1">
          <mxGeometry x="-40" y="540" width="120" height="80" as="geometry" />
        </mxCell>
        <mxCell id="DBm_p_bqu5GcMx6-zvob-15" value="" style="endArrow=classic;html=1;" parent="1" source="DBm_p_bqu5GcMx6-zvob-2" target="DBm_p_bqu5GcMx6-zvob-14" edge="1">
          <mxGeometry width="50" height="50" relative="1" as="geometry">
            <mxPoint x="520" y="340" as="sourcePoint" />
            <mxPoint x="570" y="290" as="targetPoint" />
          </mxGeometry>
        </mxCell>
        <mxCell id="DBm_p_bqu5GcMx6-zvob-16" value="Agencies" style="ellipse;whiteSpace=wrap;html=1;" parent="1" vertex="1">
          <mxGeometry x="-70" y="260" width="120" height="80" as="geometry" />
        </mxCell>
        <mxCell id="DBm_p_bqu5GcMx6-zvob-17" value="" style="endArrow=classic;html=1;" parent="1" source="DBm_p_bqu5GcMx6-zvob-2" target="DBm_p_bqu5GcMx6-zvob-16" edge="1">
          <mxGeometry width="50" height="50" relative="1" as="geometry">
            <mxPoint x="530" y="200" as="sourcePoint" />
            <mxPoint x="580" y="150" as="targetPoint" />
          </mxGeometry>
        </mxCell>
        <mxCell id="DBm_p_bqu5GcMx6-zvob-18" value="Products" style="ellipse;whiteSpace=wrap;html=1;" parent="1" vertex="1">
          <mxGeometry x="300" y="-150" width="120" height="80" as="geometry" />
        </mxCell>
        <mxCell id="DBm_p_bqu5GcMx6-zvob-20" value="Customer Basket" style="ellipse;whiteSpace=wrap;html=1;" parent="1" vertex="1">
          <mxGeometry x="-480" y="180" width="120" height="80" as="geometry" />
        </mxCell>
        <mxCell id="DBm_p_bqu5GcMx6-zvob-21" value="" style="endArrow=classic;html=1;" parent="1" source="DBm_p_bqu5GcMx6-zvob-2" target="DBm_p_bqu5GcMx6-zvob-20" edge="1">
          <mxGeometry width="50" height="50" relative="1" as="geometry">
            <mxPoint x="520" y="140" as="sourcePoint" />
            <mxPoint x="570" y="90" as="targetPoint" />
          </mxGeometry>
        </mxCell>
        <mxCell id="DBm_p_bqu5GcMx6-zvob-22" value="" style="endArrow=classic;html=1;" parent="1" source="DBm_p_bqu5GcMx6-zvob-20" target="DBm_p_bqu5GcMx6-zvob-12" edge="1">
          <mxGeometry width="50" height="50" relative="1" as="geometry">
            <mxPoint x="80" y="240" as="sourcePoint" />
            <mxPoint x="130" y="190" as="targetPoint" />
          </mxGeometry>
        </mxCell>
        <mxCell id="DBm_p_bqu5GcMx6-zvob-23" value="" style="endArrow=classic;html=1;" parent="1" source="DBm_p_bqu5GcMx6-zvob-20" target="DBm_p_bqu5GcMx6-zvob-16" edge="1">
          <mxGeometry width="50" height="50" relative="1" as="geometry">
            <mxPoint x="-330" y="330" as="sourcePoint" />
            <mxPoint x="-280" y="280" as="targetPoint" />
          </mxGeometry>
        </mxCell>
        <mxCell id="DBm_p_bqu5GcMx6-zvob-24" value="" style="endArrow=classic;html=1;" parent="1" source="DBm_p_bqu5GcMx6-zvob-20" target="DBm_p_bqu5GcMx6-zvob-8" edge="1">
          <mxGeometry width="50" height="50" relative="1" as="geometry">
            <mxPoint x="-250" y="380" as="sourcePoint" />
            <mxPoint x="-200" y="330" as="targetPoint" />
          </mxGeometry>
        </mxCell>
        <mxCell id="DBm_p_bqu5GcMx6-zvob-25" value="" style="endArrow=classic;html=1;" parent="1" source="DBm_p_bqu5GcMx6-zvob-20" target="DBm_p_bqu5GcMx6-zvob-14" edge="1">
          <mxGeometry width="50" height="50" relative="1" as="geometry">
            <mxPoint x="-240" y="470" as="sourcePoint" />
            <mxPoint x="-190" y="420" as="targetPoint" />
          </mxGeometry>
        </mxCell>
        <mxCell id="DBm_p_bqu5GcMx6-zvob-26" value="" style="endArrow=classic;html=1;" parent="1" source="DBm_p_bqu5GcMx6-zvob-20" target="DBm_p_bqu5GcMx6-zvob-3" edge="1">
          <mxGeometry width="50" height="50" relative="1" as="geometry">
            <mxPoint x="80" y="440" as="sourcePoint" />
            <mxPoint x="130" y="390" as="targetPoint" />
          </mxGeometry>
        </mxCell>
        <mxCell id="DBm_p_bqu5GcMx6-zvob-27" value="" style="endArrow=classic;html=1;" parent="1" source="DBm_p_bqu5GcMx6-zvob-20" target="DBm_p_bqu5GcMx6-zvob-5" edge="1">
          <mxGeometry width="50" height="50" relative="1" as="geometry">
            <mxPoint x="-330" y="640" as="sourcePoint" />
            <mxPoint x="-280" y="590" as="targetPoint" />
          </mxGeometry>
        </mxCell>
        <mxCell id="DBm_p_bqu5GcMx6-zvob-29" value="" style="endArrow=classic;html=1;exitX=1;exitY=0;exitDx=0;exitDy=0;" parent="1" source="DBm_p_bqu5GcMx6-zvob-20" target="DBm_p_bqu5GcMx6-zvob-18" edge="1">
          <mxGeometry width="50" height="50" relative="1" as="geometry">
            <mxPoint x="-200" y="90" as="sourcePoint" />
            <mxPoint x="-150" y="40" as="targetPoint" />
          </mxGeometry>
        </mxCell>
        <mxCell id="DBm_p_bqu5GcMx6-zvob-30" value="Inventory" style="ellipse;whiteSpace=wrap;html=1;" parent="1" vertex="1">
          <mxGeometry x="510" y="-120" width="120" height="80" as="geometry" />
        </mxCell>
        <mxCell id="DBm_p_bqu5GcMx6-zvob-31" value="" style="endArrow=classic;html=1;" parent="1" source="DBm_p_bqu5GcMx6-zvob-18" target="DBm_p_bqu5GcMx6-zvob-30" edge="1">
          <mxGeometry width="50" height="50" relative="1" as="geometry">
            <mxPoint x="410" y="-100" as="sourcePoint" />
            <mxPoint x="460" y="-150" as="targetPoint" />
          </mxGeometry>
        </mxCell>
        <mxCell id="DBm_p_bqu5GcMx6-zvob-32" value="" style="endArrow=classic;html=1;" parent="1" source="DBm_p_bqu5GcMx6-zvob-10" target="DBm_p_bqu5GcMx6-zvob-30" edge="1">
          <mxGeometry width="50" height="50" relative="1" as="geometry">
            <mxPoint x="650" y="10" as="sourcePoint" />
            <mxPoint x="700" y="-40" as="targetPoint" />
          </mxGeometry>
        </mxCell>
        <mxCell id="DBm_p_bqu5GcMx6-zvob-33" value="" style="endArrow=classic;html=1;" parent="1" source="DBm_p_bqu5GcMx6-zvob-10" target="DBm_p_bqu5GcMx6-zvob-18" edge="1">
          <mxGeometry width="50" height="50" relative="1" as="geometry">
            <mxPoint x="460" y="20" as="sourcePoint" />
            <mxPoint x="510" y="-30" as="targetPoint" />
          </mxGeometry>
        </mxCell>
        <mxCell id="DBm_p_bqu5GcMx6-zvob-35" value="" style="endArrow=classic;html=1;" parent="1" source="DBm_p_bqu5GcMx6-zvob-18" target="DBm_p_bqu5GcMx6-zvob-49" edge="1">
          <mxGeometry width="50" height="50" relative="1" as="geometry">
            <mxPoint x="250" y="40" as="sourcePoint" />
            <mxPoint x="345.68854555767984" y="-9.81981890375755" as="targetPoint" />
          </mxGeometry>
        </mxCell>
        <mxCell id="DBm_p_bqu5GcMx6-zvob-36" value="Selling Price" style="ellipse;whiteSpace=wrap;html=1;" parent="1" vertex="1">
          <mxGeometry x="790" y="40" width="120" height="80" as="geometry" />
        </mxCell>
        <mxCell id="DBm_p_bqu5GcMx6-zvob-37" value="" style="endArrow=classic;html=1;" parent="1" source="DBm_p_bqu5GcMx6-zvob-10" target="DBm_p_bqu5GcMx6-zvob-36" edge="1">
          <mxGeometry width="50" height="50" relative="1" as="geometry">
            <mxPoint x="650" y="120" as="sourcePoint" />
            <mxPoint x="700" y="70" as="targetPoint" />
          </mxGeometry>
        </mxCell>
        <mxCell id="DBm_p_bqu5GcMx6-zvob-38" value="Cost" style="ellipse;whiteSpace=wrap;html=1;" parent="1" vertex="1">
          <mxGeometry x="620" y="-370" width="120" height="80" as="geometry" />
        </mxCell>
        <mxCell id="DBm_p_bqu5GcMx6-zvob-39" value="" style="endArrow=classic;html=1;" parent="1" source="DBm_p_bqu5GcMx6-zvob-18" target="DBm_p_bqu5GcMx6-zvob-38" edge="1">
          <mxGeometry width="50" height="50" relative="1" as="geometry">
            <mxPoint x="390" y="-120" as="sourcePoint" />
            <mxPoint x="440" y="-170" as="targetPoint" />
          </mxGeometry>
        </mxCell>
        <mxCell id="DBm_p_bqu5GcMx6-zvob-41" value="Markup" style="ellipse;whiteSpace=wrap;html=1;" parent="1" vertex="1">
          <mxGeometry x="890" y="-100" width="120" height="80" as="geometry" />
        </mxCell>
        <mxCell id="DBm_p_bqu5GcMx6-zvob-42" value="" style="endArrow=classic;html=1;" parent="1" source="DBm_p_bqu5GcMx6-zvob-36" target="DBm_p_bqu5GcMx6-zvob-41" edge="1">
          <mxGeometry width="50" height="50" relative="1" as="geometry">
            <mxPoint x="580" y="-80" as="sourcePoint" />
            <mxPoint x="630" y="-130" as="targetPoint" />
          </mxGeometry>
        </mxCell>
        <mxCell id="DBm_p_bqu5GcMx6-zvob-44" value="" style="endArrow=classic;html=1;" parent="1" source="DBm_p_bqu5GcMx6-zvob-36" target="DBm_p_bqu5GcMx6-zvob-38" edge="1">
          <mxGeometry width="50" height="50" relative="1" as="geometry">
            <mxPoint x="790" y="-10" as="sourcePoint" />
            <mxPoint x="840" y="-60" as="targetPoint" />
          </mxGeometry>
        </mxCell>
        <mxCell id="DBm_p_bqu5GcMx6-zvob-45" value="Release Rule" style="ellipse;whiteSpace=wrap;html=1;" parent="1" vertex="1">
          <mxGeometry x="560" y="-220" width="120" height="80" as="geometry" />
        </mxCell>
        <mxCell id="DBm_p_bqu5GcMx6-zvob-46" value="" style="endArrow=classic;html=1;" parent="1" source="DBm_p_bqu5GcMx6-zvob-30" target="DBm_p_bqu5GcMx6-zvob-45" edge="1">
          <mxGeometry width="50" height="50" relative="1" as="geometry">
            <mxPoint x="620" y="-70" as="sourcePoint" />
            <mxPoint x="670" y="-120" as="targetPoint" />
          </mxGeometry>
        </mxCell>
        <mxCell id="DBm_p_bqu5GcMx6-zvob-47" value="Nesting Rules" style="ellipse;whiteSpace=wrap;html=1;" parent="1" vertex="1">
          <mxGeometry x="650" y="-110" width="120" height="80" as="geometry" />
        </mxCell>
        <mxCell id="DBm_p_bqu5GcMx6-zvob-48" value="" style="endArrow=classic;html=1;" parent="1" source="DBm_p_bqu5GcMx6-zvob-30" target="DBm_p_bqu5GcMx6-zvob-47" edge="1">
          <mxGeometry width="50" height="50" relative="1" as="geometry">
            <mxPoint x="620" y="-60" as="sourcePoint" />
            <mxPoint x="670" y="-110" as="targetPoint" />
          </mxGeometry>
        </mxCell>
        <mxCell id="DBm_p_bqu5GcMx6-zvob-49" value="Brochure" style="rounded=1;whiteSpace=wrap;html=1;" parent="1" vertex="1">
          <mxGeometry x="260" y="-20" width="120" height="30" as="geometry" />
        </mxCell>
        <mxCell id="DBm_p_bqu5GcMx6-zvob-50" value="Brochure" style="rounded=1;whiteSpace=wrap;html=1;" parent="1" vertex="1">
          <mxGeometry x="610" y="20" width="120" height="30" as="geometry" />
        </mxCell>
        <mxCell id="DBm_p_bqu5GcMx6-zvob-53" value="" style="endArrow=classic;html=1;" parent="1" source="DBm_p_bqu5GcMx6-zvob-47" target="DBm_p_bqu5GcMx6-zvob-50" edge="1">
          <mxGeometry width="50" height="50" relative="1" as="geometry">
            <mxPoint x="580" y="-80" as="sourcePoint" />
            <mxPoint x="630" y="-130" as="targetPoint" />
          </mxGeometry>
        </mxCell>
        <mxCell id="DBm_p_bqu5GcMx6-zvob-54" value="Modification Rule" style="ellipse;whiteSpace=wrap;html=1;" parent="1" vertex="1">
          <mxGeometry x="440" y="360" width="120" height="80" as="geometry" />
        </mxCell>
        <mxCell id="DBm_p_bqu5GcMx6-zvob-55" value="" style="endArrow=classic;html=1;" parent="1" source="DBm_p_bqu5GcMx6-zvob-2" target="DBm_p_bqu5GcMx6-zvob-54" edge="1">
          <mxGeometry width="50" height="50" relative="1" as="geometry">
            <mxPoint x="390" y="320" as="sourcePoint" />
            <mxPoint x="440" y="270" as="targetPoint" />
          </mxGeometry>
        </mxCell>
        <mxCell id="DBm_p_bqu5GcMx6-zvob-56" value="Annulation Rule" style="ellipse;whiteSpace=wrap;html=1;" parent="1" vertex="1">
          <mxGeometry x="590" y="270" width="120" height="80" as="geometry" />
        </mxCell>
        <mxCell id="DBm_p_bqu5GcMx6-zvob-57" value="" style="endArrow=classic;html=1;" parent="1" source="DBm_p_bqu5GcMx6-zvob-2" target="DBm_p_bqu5GcMx6-zvob-56" edge="1">
          <mxGeometry width="50" height="50" relative="1" as="geometry">
            <mxPoint x="390" y="320" as="sourcePoint" />
            <mxPoint x="440" y="270" as="targetPoint" />
          </mxGeometry>
        </mxCell>
        <mxCell id="DBm_p_bqu5GcMx6-zvob-58" value="Brochure" style="rounded=1;whiteSpace=wrap;html=1;" parent="1" vertex="1">
          <mxGeometry x="660" y="385" width="120" height="30" as="geometry" />
        </mxCell>
        <mxCell id="DBm_p_bqu5GcMx6-zvob-59" value="Brochure" style="rounded=1;whiteSpace=wrap;html=1;" parent="1" vertex="1">
          <mxGeometry x="400" y="480" width="120" height="30" as="geometry" />
        </mxCell>
        <mxCell id="DBm_p_bqu5GcMx6-zvob-60" value="" style="endArrow=classic;html=1;" parent="1" source="DBm_p_bqu5GcMx6-zvob-54" target="DBm_p_bqu5GcMx6-zvob-59" edge="1">
          <mxGeometry width="50" height="50" relative="1" as="geometry">
            <mxPoint x="390" y="320" as="sourcePoint" />
            <mxPoint x="440" y="270" as="targetPoint" />
          </mxGeometry>
        </mxCell>
        <mxCell id="DBm_p_bqu5GcMx6-zvob-61" value="" style="endArrow=classic;html=1;" parent="1" source="DBm_p_bqu5GcMx6-zvob-56" target="DBm_p_bqu5GcMx6-zvob-58" edge="1">
          <mxGeometry width="50" height="50" relative="1" as="geometry">
            <mxPoint x="390" y="320" as="sourcePoint" />
            <mxPoint x="440" y="270" as="targetPoint" />
          </mxGeometry>
        </mxCell>
      </root>
    </mxGraphModel>
  </diagram>
</mxfile>
